<svg xmlns="http://www.w3.org/2000/svg" viewBox="0 0 1200 630" width="1200" height="630">
  <defs>
    <filter id="paper-noise">
      <feTurbulence type="fractalNoise" baseFrequency="0.85" numOctaves="2" stitchTiles="stitch"/>
      <feColorMatrix values="0 0 0 0 0  0 0 0 0 0  0 0 0 0 0  0 0 0 0.04 0"/>
    </filter>
  </defs>

  <!-- Paper background -->
  <rect width="1200" height="630" fill="#F4F0E6"/>
  <rect width="1200" height="630" filter="url(#paper-noise)"/>

  <!-- Page border -->
  <rect x="56" y="56" width="1088" height="518" fill="none" stroke="#2A3850" stroke-width="1.5"/>

  <!-- 12-column grid hint -->
  <g stroke="#B8A878" stroke-width="1" opacity="0.25">
    <line x1="146" y1="56" x2="146" y2="574"/>
    <line x1="236" y1="56" x2="236" y2="574"/>
    <line x1="326" y1="56" x2="326" y2="574"/>
    <line x1="416" y1="56" x2="416" y2="574"/>
    <line x1="506" y1="56" x2="506" y2="574"/>
    <line x1="596" y1="56" x2="596" y2="574"/>
    <line x1="686" y1="56" x2="686" y2="574"/>
    <line x1="776" y1="56" x2="776" y2="574"/>
    <line x1="866" y1="56" x2="866" y2="574"/>
    <line x1="956" y1="56" x2="956" y2="574"/>
    <line x1="1046" y1="56" x2="1046" y2="574"/>
  </g>

  <!-- Section label -->
  <g font-family="JetBrains Mono, monospace" fill="#5A6B7C">
    <text x="100" y="120" font-size="14" letter-spacing="2.4">§ COVER · BOX-BOX</text>
  </g>

  <!-- Wordmark -->
  <text x="100" y="280" font-family="Space Grotesk, sans-serif" font-weight="500" font-size="160" fill="#1B2838" letter-spacing="-2">box-box</text>

  <!-- Tagline -->
  <text x="100" y="360" font-family="JetBrains Mono, monospace" font-size="32" letter-spacing="6" fill="#E10600">MAKE THE CALL.</text>

  <!-- Description -->
  <text x="100" y="420" font-family="Inter Tight, sans-serif" font-size="22" fill="#5A6B7C">F1 podium predictions, settled by results.</text>

  <!-- Dimension line at bottom -->
  <g stroke="#2A3850" stroke-width="1">
    <line x1="100" y1="490" x2="105" y2="490"/>
    <line x1="105" y1="487" x2="105" y2="493"/>
    <line x1="105" y1="490" x2="500" y2="490"/>
    <line x1="500" y1="487" x2="500" y2="493"/>
  </g>
  <text x="510" y="494" font-family="JetBrains Mono, monospace" font-size="13" letter-spacing="2" fill="#5A6B7C">1280.00 mm</text>

  <!-- Drawing block, bottom-right -->
  <g font-family="JetBrains Mono, monospace" font-size="11" letter-spacing="1.2" fill="#5A6B7C">
    <rect x="780" y="500" width="364" height="56" fill="none" stroke="#2A3850"/>
    <line x1="780" y1="528" x2="1144" y2="528" stroke="#B8A878"/>
    <line x1="900" y1="500" x2="900" y2="556" stroke="#B8A878"/>
    <line x1="1020" y1="500" x2="1020" y2="556" stroke="#B8A878"/>
    <text x="790" y="518"><tspan fill="#1B2838">PROJECT</tspan> box-box</text>
    <text x="910" y="518"><tspan fill="#1B2838">DRAWN</tspan> Joshua</text>
    <text x="1030" y="518"><tspan fill="#1B2838">SCALE</tspan> 1:1</text>
    <text x="790" y="546"><tspan fill="#1B2838">REV</tspan> 0.1</text>
    <text x="910" y="546"><tspan fill="#1B2838">DATE</tspan> 2026-04</text>
    <text x="1030" y="546"><tspan fill="#1B2838">SHEET</tspan> 1/1</text>
  </g>
</svg>
